<mxfile host="app.diagrams.net" modified="2024-06-06T15:00:38.943Z" agent="Mozilla/5.0 (Windows NT 10.0; Win64; x64) AppleWebKit/537.36 (KHTML, like Gecko) Chrome/125.0.0.0 Safari/537.36" version="24.4.15" etag="mWS9NRvanJquAJSzSgxm" type="github">
  <diagram name="Page-1" id="MRQOPAR4cAN6xcmQjD4X">
    <mxGraphModel>
      <root>
        <mxCell id="0" />
        <mxCell id="1" parent="0" />
      </root>
    </mxGraphModel>
  </diagram>
</mxfile>
